<svg width="553" height="298" viewBox="0 0 553 298" fill="none" xmlns="http://www.w3.org/2000/svg">
<path d="M17.4885 281.142L13.0627 294.177L4.01555 283.966L17.4885 281.142Z" fill="#66345D"/>
<path d="M543.992 3.97549L551.018 13.9992L537.216 14.17L543.992 3.97549Z" fill="#3C1F37"/>
<rect width="516" height="274.667" transform="translate(19 14)" fill="#6F6F6F"/>
<rect x="13" y="14" width="538" height="280" fill="#C29ECC"/>
<g filter="url(#filter0_f_13_53)">
<path d="M223 36.5333C202.6 43.0667 190.067 55.3333 184.067 74.2667C180.733 85.0667 180.733 105.6 184.067 116.4C190.867 138 207.8 152 231 155.333C243.533 157.067 253 156.133 265.533 151.733C273.667 148.933 276.867 146.8 283.667 140.133C288.2 135.6 293 130 294.2 127.6C297.667 120.8 301.667 103.733 301.667 95.3333C301.667 86.9333 297.667 69.8667 294.2 63.0667C291.267 57.4667 278.2 44.4 272.333 41.3333C258.467 34.1333 236.867 32 223 36.5333ZM252.467 72.1333C261.267 76.6667 265.933 90.1333 263.133 102.8C259 121.2 238.467 128 226.067 115.067C215.933 104.133 216.467 84 227.4 74.6667C234.6 68.4 243.667 67.4667 252.467 72.1333Z" fill="#841198"/>
</g>
<path d="M223 36.5333C202.6 43.0667 190.067 55.3333 184.067 74.2667C180.733 85.0667 180.733 105.6 184.067 116.4C190.867 138 207.8 152 231 155.333C243.533 157.067 253 156.133 265.533 151.733C273.667 148.933 276.867 146.8 283.667 140.133C288.2 135.6 293 130 294.2 127.6C297.667 120.8 301.667 103.733 301.667 95.3333C301.667 86.9333 297.667 69.8667 294.2 63.0667C291.267 57.4667 278.2 44.4 272.333 41.3333C258.467 34.1333 236.867 32 223 36.5333ZM252.467 72.1333C261.267 76.6667 265.933 90.1333 263.133 102.8C259 121.2 238.467 128 226.067 115.067C215.933 104.133 216.467 84 227.4 74.6667C234.6 68.4 243.667 67.4667 252.467 72.1333Z" fill="#841198"/>
<g filter="url(#filter1_f_13_53)">
<path d="M458.6 37.2C439.933 43.4667 430.067 60.2667 433.667 79.4667C436.333 93.0667 445.667 101.867 466.333 110.133C481.533 116.133 483.533 118.533 477.133 122.8C474.333 124.533 472.733 124.667 466.733 123.467C462.867 122.667 456.6 120.533 452.867 118.8V118.8C449.046 117.037 444.521 118.724 442.789 122.559L439.667 129.467C432.6 144.8 432.6 144.8 442.467 149.6C451.4 154.133 460.467 156 473 156C488.2 155.867 496.733 153.067 505.533 145.2C513.533 138 516.867 130.267 516.867 118.8C516.733 101.867 508.333 92 485.667 82C470.733 75.3333 467.933 72.9333 471 69.3333C473.667 66.1333 484.333 67.3333 493.533 71.7333C504.467 77.0667 502.867 78.2667 511.667 58.4C513.667 53.8667 515 49.2 514.6 48.1333C512.6 43.0667 486.867 34 474.867 34C470.867 34 463.533 35.4667 458.6 37.2Z" fill="#841198"/>
</g>
<path d="M458.6 37.2C439.933 43.4667 430.067 60.2667 433.667 79.4667C436.333 93.0667 445.667 101.867 466.333 110.133C481.533 116.133 483.533 118.533 477.133 122.8C474.333 124.533 472.733 124.667 466.733 123.467C462.867 122.667 456.6 120.533 452.867 118.8V118.8C449.046 117.037 444.521 118.724 442.789 122.559L439.667 129.467C432.6 144.8 432.6 144.8 442.467 149.6C451.4 154.133 460.467 156 473 156C488.2 155.867 496.733 153.067 505.533 145.2C513.533 138 516.867 130.267 516.867 118.8C516.733 101.867 508.333 92 485.667 82C470.733 75.3333 467.933 72.9333 471 69.3333C473.667 66.1333 484.333 67.3333 493.533 71.7333C504.467 77.0667 502.867 78.2667 511.667 58.4C513.667 53.8667 515 49.2 514.6 48.1333C512.6 43.0667 486.867 34 474.867 34C470.867 34 463.533 35.4667 458.6 37.2Z" fill="#841198"/>
<g filter="url(#filter2_f_13_53)">
<path d="M38.3333 38.2667C37.9333 39.2 37.8 65.4667 37.9333 96.6667L38.2632 143.404C38.302 148.899 42.7677 153.333 48.263 153.333H56.3333H64.6231C70.0315 153.333 74.4598 149.033 74.6188 143.627L75 130.667L75.2105 123.51C75.3033 120.355 79.7027 119.683 80.7333 122.667V122.667C83.5333 130.667 87.1333 140.933 88.7333 145.333L89.4266 147.142C90.8651 150.894 94.4105 153.421 98.4271 153.557L103.667 153.733C110.733 154 115.933 153.6 116.867 152.667C117.667 151.867 122.067 140.667 126.6 127.6L126.711 127.283C128.336 122.645 135.187 123.753 135.267 128.667V128.667L135.511 143.715C135.598 149.086 139.913 153.429 145.284 153.55L153.4 153.733L160.726 153.9C166.354 154.028 170.979 149.486 170.953 143.857L170.733 95.7334L170.4 47.0615C170.363 41.646 166.022 37.2441 160.607 37.1321L151 36.9334C136.867 36.6667 131 37.0667 129.4 38.2667C127.533 39.8667 120.867 57.0667 109.267 91.0667C104.2 105.733 106.2 108.267 91.6667 68C86.0667 52.5334 80.6 39.2 79.4 38.2667C77.8 37.2 71.2667 36.6667 58.0667 36.6667C43.9333 36.6667 38.7333 37.0667 38.3333 38.2667Z" fill="#841198"/>
<path d="M38.8017 38.4427L38.8075 38.4252C38.8075 38.4252 38.8075 38.4252 38.8076 38.4251C38.8086 38.4225 38.8322 38.3676 38.9751 38.2813C39.1268 38.1896 39.3679 38.0904 39.7281 37.9932C40.4472 37.7992 41.5393 37.6395 43.09 37.5151C46.1843 37.2669 50.9993 37.1667 58.0667 37.1667C64.6627 37.1667 69.581 37.3 73.0452 37.5652C74.7779 37.6979 76.1362 37.8628 77.1538 38.0578C78.1668 38.2519 78.7841 38.4659 79.1014 38.6689C79.1032 38.6706 79.1053 38.6726 79.1077 38.6749C79.1174 38.6845 79.1302 38.6981 79.146 38.7165C79.1781 38.7537 79.2177 38.8048 79.2649 38.872C79.3597 39.0068 79.4739 39.1905 79.6073 39.425C79.8737 39.8936 80.2015 40.5387 80.5835 41.3453C81.347 42.9569 82.314 45.1854 83.421 47.8737C85.6342 53.2486 88.3982 60.4415 91.1964 68.1698C92.5869 72.0224 93.8266 75.4848 94.9359 78.5828C96.7233 83.5749 98.172 87.6208 99.3669 90.8287C100.335 93.4288 101.141 95.4882 101.828 97.0611C102.511 98.6243 103.092 99.743 103.619 100.436C103.881 100.781 104.158 101.06 104.462 101.222C104.789 101.397 105.144 101.435 105.492 101.294C105.81 101.165 106.063 100.908 106.272 100.619C106.485 100.324 106.684 99.9496 106.879 99.5178C107.267 98.6546 107.669 97.4851 108.127 96.0943C108.246 95.7318 108.369 95.3535 108.497 94.9602C108.864 93.8344 109.271 92.5852 109.739 91.23L109.74 91.2281C115.539 74.2302 120.104 61.437 123.45 52.6955C125.124 48.3239 126.491 44.9718 127.554 42.6161C128.085 41.4376 128.538 40.5158 128.912 39.8433C129.289 39.1656 129.555 38.7986 129.714 38.6563C130.026 38.4285 130.599 38.2 131.562 38.0046C132.526 37.809 133.825 37.6567 135.531 37.549C138.943 37.3337 143.926 37.3 150.99 37.4333L150.991 37.4333M38.8017 38.4427L170.4 47.0615C170.363 41.646 166.022 37.2441 160.607 37.1321L151 36.9334L150.991 37.4333M38.8017 38.4427C38.8001 38.4501 38.7961 38.469 38.7908 38.5037C38.781 38.5674 38.7704 38.6582 38.7594 38.779C38.7374 39.0197 38.716 39.3567 38.6953 39.7883C38.6539 40.6502 38.6165 41.8695 38.5832 43.4088C38.5166 46.4862 38.4666 50.829 38.4333 56.1198C38.3667 66.7008 38.3667 81.0656 38.4333 96.6646L38.7632 143.4C38.8001 148.621 43.0425 152.833 48.263 152.833H56.3333H64.6231C69.7611 152.833 73.968 148.748 74.119 143.613L74.5002 130.652L74.7107 123.496C74.8198 119.785 79.9933 118.995 81.2057 122.503C84.0053 130.502 87.6024 140.76 89.2018 145.158L89.8934 146.963C91.26 150.528 94.6281 152.928 98.444 153.057L103.684 153.234L103.686 153.234C107.207 153.367 110.253 153.333 112.527 153.152C113.665 153.061 114.597 152.934 115.294 152.777C115.643 152.698 115.921 152.614 116.133 152.528C116.352 152.439 116.465 152.362 116.513 152.313C116.513 152.314 116.513 152.314 116.513 152.314C116.513 152.313 116.524 152.301 116.544 152.272C116.566 152.241 116.595 152.198 116.629 152.14C116.698 152.025 116.782 151.869 116.882 151.671C117.082 151.274 117.333 150.73 117.629 150.05C118.221 148.692 118.985 146.816 119.867 144.552C121.631 140.025 123.863 133.965 126.128 127.436L126.128 127.435L126.239 127.118C128.048 121.952 135.678 123.186 135.767 128.659L136.011 143.707C136.093 148.81 140.193 152.935 145.295 153.05L153.411 153.233L153.411 153.233L160.737 153.4C166.084 153.522 170.478 149.207 170.453 143.859L170.233 95.7368M38.8017 38.4427L170.233 95.7368M150.991 37.4333L160.597 37.632C165.74 37.7384 169.865 41.9202 169.9 47.0649L170.233 95.7356M150.991 37.4333L170.233 95.7356M170.233 95.7368L170.233 95.7356M170.233 95.7368L170.233 95.7356M80.7333 122.667C83.5333 130.667 87.1333 140.933 88.7333 145.333L80.7333 122.667Z" stroke="#841198"/>
</g>
<path d="M38.3333 38.2667C37.9333 39.2 37.8 65.4667 37.9333 96.6667L38.2632 143.404C38.302 148.899 42.7677 153.333 48.263 153.333H56.3333H64.6231C70.0315 153.333 74.4598 149.033 74.6188 143.627L75 130.667L75.2105 123.51C75.3033 120.355 79.7027 119.683 80.7333 122.667V122.667C83.5333 130.667 87.1333 140.933 88.7333 145.333L89.4266 147.142C90.8651 150.894 94.4105 153.421 98.4271 153.557L103.667 153.733C110.733 154 115.933 153.6 116.867 152.667C117.667 151.867 122.067 140.667 126.6 127.6L126.711 127.283C128.336 122.645 135.187 123.753 135.267 128.667V128.667L135.511 143.715C135.598 149.086 139.913 153.429 145.284 153.55L153.4 153.733L160.726 153.9C166.354 154.028 170.979 149.486 170.953 143.857L170.733 95.7334L170.4 47.0615C170.363 41.646 166.022 37.2441 160.607 37.1321L151 36.9334C136.867 36.6667 131 37.0667 129.4 38.2667C127.533 39.8667 120.867 57.0667 109.267 91.0667C104.2 105.733 106.2 108.267 91.6667 68C86.0667 52.5334 80.6 39.2 79.4 38.2667C77.8 37.2 71.2667 36.6667 58.0667 36.6667C43.9333 36.6667 38.7333 37.0667 38.3333 38.2667Z" fill="#841198"/>
<g filter="url(#filter3_f_13_53)">
<path d="M311.667 38.2667C311.267 39.2 311.133 65.4667 311.267 96.6667L311.597 143.499C311.636 148.956 316.043 153.375 321.501 153.428L353.4 153.733L384.936 153.935C390.484 153.971 395 149.484 395 143.936V138.667V133.333C395 127.81 390.523 123.333 385 123.333H371H353.667C349.985 123.333 347 120.349 347 116.667V116.667V116.667C347 112.985 349.985 110 353.667 110H363.667C378.067 110 380.333 109.733 381.533 107.6C382.2 106.4 383.133 99.7333 383.667 92.9333L383.781 91.4253C384.223 85.6203 379.632 80.6667 373.81 80.6667H365.8H353C349.686 80.6667 347 77.9804 347 74.6667V74.6667V74.6667C347 71.353 349.686 68.6667 353 68.6667H367.4C378.467 68.6667 389 68.2667 390.733 67.8667C393.533 67.0667 393.667 66.4 393.667 52.6667C393.667 40.8 393.267 38.1333 391.533 37.4667C390.333 37.0667 372.067 36.6667 350.867 36.6667C321.133 36.6667 312.067 37.0667 311.667 38.2667Z" fill="#841198"/>
</g>
<path d="M311.667 38.2667C311.267 39.2 311.133 65.4667 311.267 96.6667L311.597 143.499C311.636 148.956 316.043 153.375 321.501 153.428L353.4 153.733L384.936 153.935C390.484 153.971 395 149.484 395 143.936V138.667V133.333C395 127.81 390.523 123.333 385 123.333H371H353.667C349.985 123.333 347 120.349 347 116.667V116.667V116.667C347 112.985 349.985 110 353.667 110H363.667C378.067 110 380.333 109.733 381.533 107.6C382.2 106.4 383.133 99.7333 383.667 92.9333L383.781 91.4253C384.223 85.6203 379.632 80.6667 373.81 80.6667H365.8H353C349.686 80.6667 347 77.9804 347 74.6667V74.6667V74.6667C347 71.353 349.686 68.6667 353 68.6667H367.4C378.467 68.6667 389 68.2667 390.733 67.8667C393.533 67.0667 393.667 66.4 393.667 52.6667C393.667 40.8 393.267 38.1333 391.533 37.4667C390.333 37.0667 372.067 36.6667 350.867 36.6667C321.133 36.6667 312.067 37.0667 311.667 38.2667Z" fill="#841198"/>
<g filter="url(#filter4_f_13_53)">
<path d="M403.8 38.8C402.333 40.1334 401.667 43.3334 401.667 48.4C401.667 52.5334 401.267 59.2 400.733 63.2L400.719 63.3317C400.316 66.9525 403.38 70.0098 407 69.6V69.6C410.867 69.0667 415.267 67.8667 416.867 66.9334C420.2 64.6667 427.933 42.2667 426.6 38.8C425.4 35.7334 406.867 35.7334 403.8 38.8Z" fill="#841198"/>
</g>
<path d="M403.8 38.8C402.333 40.1334 401.667 43.3334 401.667 48.4C401.667 52.5334 401.267 59.2 400.733 63.2L400.719 63.3317C400.316 66.9525 403.38 70.0098 407 69.6V69.6C410.867 69.0667 415.267 67.8667 416.867 66.9334C420.2 64.6667 427.933 42.2667 426.6 38.8C425.4 35.7334 406.867 35.7334 403.8 38.8Z" fill="#841198"/>
<g filter="url(#filter5_f_13_53)">
<path d="M37.9333 186.267L38.0316 189.314C38.2014 194.577 42.4232 198.806 47.6857 198.986L50.0667 199.067L52.0113 199.134C57.3968 199.319 61.6667 203.739 61.6667 209.128V233.2C61.6667 262.8 61.9333 267.2 63.8 267.867C67.6667 269.333 87.6667 268.8 89.4 267.067C90.6 265.867 91 256.4 91 232.4V209.333C91 203.811 95.4771 199.333 101 199.333H101.533H106.428C109.718 199.333 112.487 196.868 112.867 193.6V193.6C113.267 190.533 113.8 184.933 113.933 181.333V181.333C114.151 177.706 111.289 174.635 107.655 174.597L75.9333 174.267L47.9365 174.072C42.2588 174.033 37.6873 178.723 37.8724 184.398L37.9333 186.267Z" fill="#841198"/>
</g>
<path d="M37.9333 186.267L38.0316 189.314C38.2014 194.577 42.4232 198.806 47.6857 198.986L50.0667 199.067L52.0113 199.134C57.3968 199.319 61.6667 203.739 61.6667 209.128V233.2C61.6667 262.8 61.9333 267.2 63.8 267.867C67.6667 269.333 87.6667 268.8 89.4 267.067C90.6 265.867 91 256.4 91 232.4V209.333C91 203.811 95.4771 199.333 101 199.333H101.533H106.428C109.718 199.333 112.487 196.868 112.867 193.6V193.6C113.267 190.533 113.8 184.933 113.933 181.333V181.333C114.151 177.706 111.289 174.635 107.655 174.597L75.9333 174.267L47.9365 174.072C42.2588 174.033 37.6873 178.723 37.8724 184.398L37.9333 186.267Z" fill="#841198"/>
<g filter="url(#filter6_f_13_53)">
<path d="M126.467 182.933C124.6 187.867 118.867 204.533 113.667 220C108.467 235.333 102.733 252.133 101 257.333C99.2667 262.4 98.3333 267.2 98.8667 267.733C99.4 268.267 106.467 268.533 114.467 268.4L121.654 268.2C125.96 268.081 129.706 265.216 130.95 261.092L131.4 259.6L131.767 258.403C133.054 254.202 136.934 251.333 141.328 251.333H145.8C158.867 251.333 158.867 251.333 160.867 260.933C162.333 267.733 164.6 268.667 179.8 268.667C192.6 268.667 193.667 268.533 193.667 266.133C193.667 264.667 191.267 256.4 188.2 247.733C181.533 228.533 173.4 204.267 167.667 187.333L165.728 181.393C164.413 177.362 160.699 174.599 156.46 174.498L146.733 174.267L136.991 174.035C132.76 173.934 128.924 176.507 127.412 180.461L126.467 182.933ZM150.2 221.6C151.4 225.333 152.333 229.2 152.333 229.867C152.333 230.667 149.667 231.333 146.333 231.333C143 231.333 140.333 230.667 140.333 230C140.333 229.2 141.667 224.133 143.267 218.533C145.667 210.4 146.467 209.067 147.133 211.6C147.667 213.333 149 217.733 150.2 221.6Z" fill="#841198"/>
</g>
<path d="M126.467 182.933C124.6 187.867 118.867 204.533 113.667 220C108.467 235.333 102.733 252.133 101 257.333C99.2667 262.4 98.3333 267.2 98.8667 267.733C99.4 268.267 106.467 268.533 114.467 268.4L121.654 268.2C125.96 268.081 129.706 265.216 130.95 261.092L131.4 259.6L131.767 258.403C133.054 254.202 136.934 251.333 141.328 251.333H145.8C158.867 251.333 158.867 251.333 160.867 260.933C162.333 267.733 164.6 268.667 179.8 268.667C192.6 268.667 193.667 268.533 193.667 266.133C193.667 264.667 191.267 256.4 188.2 247.733C181.533 228.533 173.4 204.267 167.667 187.333L165.728 181.393C164.413 177.362 160.699 174.599 156.46 174.498L146.733 174.267L136.991 174.035C132.76 173.934 128.924 176.507 127.412 180.461L126.467 182.933ZM150.2 221.6C151.4 225.333 152.333 229.2 152.333 229.867C152.333 230.667 149.667 231.333 146.333 231.333C143 231.333 140.333 230.667 140.333 230C140.333 229.2 141.667 224.133 143.267 218.533C145.667 210.4 146.467 209.067 147.133 211.6C147.667 213.333 149 217.733 150.2 221.6Z" fill="#841198"/>
<g filter="url(#filter7_f_13_53)">
<path d="M179 175.2C179 175.733 180.733 181.333 183 187.467C185.133 193.6 192.067 213.6 198.333 232C204.733 250.267 210.467 266.133 211.267 266.933C213.267 269.467 242.067 269.333 244.2 266.8C245 265.867 247.8 259.067 250.2 251.867C252.733 244.533 259.533 224.667 265.533 207.467C271.533 190.267 276.333 175.733 276.333 175.067C276.333 174.533 268.867 174 259.667 174C243.533 174 242.867 174.133 241.667 176.933C241 178.667 237.667 190.8 234.2 204C230.867 217.2 227.933 228.133 227.667 228.4C227.533 228.533 224.867 218.667 221.8 206.4C218.6 194 215.533 181.733 214.733 178.933V178.933C213.863 176.007 211.173 174 208.12 174H196.067C186.733 174 179 174.533 179 175.2Z" fill="#841198"/>
</g>
<path d="M179 175.2C179 175.733 180.733 181.333 183 187.467C185.133 193.6 192.067 213.6 198.333 232C204.733 250.267 210.467 266.133 211.267 266.933C213.267 269.467 242.067 269.333 244.2 266.8C245 265.867 247.8 259.067 250.2 251.867C252.733 244.533 259.533 224.667 265.533 207.467C271.533 190.267 276.333 175.733 276.333 175.067C276.333 174.533 268.867 174 259.667 174C243.533 174 242.867 174.133 241.667 176.933C241 178.667 237.667 190.8 234.2 204C230.867 217.2 227.933 228.133 227.667 228.4C227.533 228.533 224.867 218.667 221.8 206.4C218.6 194 215.533 181.733 214.733 178.933V178.933C213.863 176.007 211.173 174 208.12 174H196.067C186.733 174 179 174.533 179 175.2Z" fill="#841198"/>
<g filter="url(#filter8_f_13_53)">
<path d="M280.6 220.933L280.917 258.209C280.963 263.649 285.351 268.055 290.791 268.123L312.867 268.4C335.667 268.667 345.133 268.267 346.6 267.2C347.933 266 348.333 262.8 348.067 254.133L347.992 251.991C347.809 246.74 343.593 242.526 338.343 242.345L328.333 242L313.399 241.485C310.925 241.4 308.942 239.408 308.867 236.933V236.933C308.771 235.313 309.085 233.762 309.563 233.008C309.858 232.543 310.472 232.495 311.021 232.458C313.084 232.316 318.389 232.111 324.067 232C328.632 231.91 332.717 231.701 335.03 231.492C336.345 231.373 337.202 230.55 337.396 229.244C337.71 227.126 338.117 223.535 338.467 219.6V219.6C338.965 213.763 334.368 208.667 328.51 208.667H324.467C317.364 208.667 311.999 208.319 310.193 207.765C309.667 207.603 309.483 207.06 309.449 206.51C309.4 205.729 309.4 204.762 309.4 204C309.4 202.933 309.4 201.333 309.533 200.667C309.667 199.867 316.6 199.333 327.533 199.333C343.933 199.333 345.4 199.067 346.067 196.8C346.867 193.467 346.867 177.867 346.067 175.733C345.533 174.4 337.933 174 312.867 174H290.39C284.845 174 280.359 178.512 280.39 184.057L280.6 220.933Z" fill="#841198"/>
</g>
<path d="M280.6 220.933L280.917 258.209C280.963 263.649 285.351 268.055 290.791 268.123L312.867 268.4C335.667 268.667 345.133 268.267 346.6 267.2C347.933 266 348.333 262.8 348.067 254.133L347.992 251.991C347.809 246.74 343.593 242.526 338.343 242.345L328.333 242L313.399 241.485C310.925 241.4 308.942 239.408 308.867 236.933V236.933C308.771 235.313 309.085 233.762 309.563 233.008C309.858 232.543 310.472 232.495 311.021 232.458C313.084 232.316 318.389 232.111 324.067 232C328.632 231.91 332.717 231.701 335.03 231.492C336.345 231.373 337.202 230.55 337.396 229.244C337.71 227.126 338.117 223.535 338.467 219.6V219.6C338.965 213.763 334.368 208.667 328.51 208.667H324.467C317.364 208.667 311.999 208.319 310.193 207.765C309.667 207.603 309.483 207.06 309.449 206.51C309.4 205.729 309.4 204.762 309.4 204C309.4 202.933 309.4 201.333 309.533 200.667C309.667 199.867 316.6 199.333 327.533 199.333C343.933 199.333 345.4 199.067 346.067 196.8C346.867 193.467 346.867 177.867 346.067 175.733C345.533 174.4 337.933 174 312.867 174H290.39C284.845 174 280.359 178.512 280.39 184.057L280.6 220.933Z" fill="#841198"/>
<g filter="url(#filter9_f_13_53)">
<path d="M355.267 220.933L355.582 258.085C355.629 263.574 360.092 268 365.582 268H369H372.741C378.102 268 382.509 263.773 382.733 258.416L383 252V252C383.178 247.734 388.919 246.504 390.828 250.323L391.667 252L396.981 262.628C398.634 265.934 401.976 268.059 405.671 268.153L415.4 268.4C427.933 268.667 431.133 268.4 431.8 266.8C432.2 265.867 427.933 257.6 422.467 248.667C416.867 239.733 412.333 232 412.333 231.6C412.333 231.067 414.467 228.933 417.133 226.8C423.533 221.733 427 213.867 427 204.267C427 194.933 424.867 189.6 418.6 183.2C411 175.6 403.8 174 377.533 174H365.057C359.512 174 355.026 178.512 355.057 184.057L355.267 220.933ZM396.067 200.933C398.333 203.2 398.067 208.133 395.533 210.533C394.333 211.733 391.267 212.667 388.2 212.667V212.667C385.328 212.667 383 210.339 383 207.467V206V205.067C383 201.9 385.567 199.333 388.733 199.333V199.333C391.933 199.333 395.133 200 396.067 200.933Z" fill="#841198"/>
</g>
<path d="M355.267 220.933L355.582 258.085C355.629 263.574 360.092 268 365.582 268H369H372.741C378.102 268 382.509 263.773 382.733 258.416L383 252V252C383.178 247.734 388.919 246.504 390.828 250.323L391.667 252L396.981 262.628C398.634 265.934 401.976 268.059 405.671 268.153L415.4 268.4C427.933 268.667 431.133 268.4 431.8 266.8C432.2 265.867 427.933 257.6 422.467 248.667C416.867 239.733 412.333 232 412.333 231.6C412.333 231.067 414.467 228.933 417.133 226.8C423.533 221.733 427 213.867 427 204.267C427 194.933 424.867 189.6 418.6 183.2C411 175.6 403.8 174 377.533 174H365.057C359.512 174 355.026 178.512 355.057 184.057L355.267 220.933ZM396.067 200.933C398.333 203.2 398.067 208.133 395.533 210.533C394.333 211.733 391.267 212.667 388.2 212.667V212.667C385.328 212.667 383 210.339 383 207.467V206V205.067C383 201.9 385.567 199.333 388.733 199.333V199.333C391.933 199.333 395.133 200 396.067 200.933Z" fill="#841198"/>
<g filter="url(#filter10_f_13_53)">
<path d="M438.627 174.557C437.69 174.694 437.124 175.38 437.046 176.325C436.627 181.426 436.333 199.881 436.333 221.467C436.333 261.733 436.6 267.2 438.467 267.867C441.533 269.067 462.067 268.8 463.933 267.6C465.133 266.933 465.667 260.533 465.933 246.667V246.667C466.043 241.175 473.35 239.368 476.007 244.176L476.867 245.733C482.6 256.133 488.2 265.6 489.267 266.667C491.933 269.333 513.933 269.467 516.2 266.8C517.267 265.6 517.667 252.133 517.4 219.867L517.088 184.578C517.039 179.09 512.576 174.667 507.088 174.667H503H498.808C493.361 174.667 488.916 179.027 488.81 184.473L488.6 195.333V195.333C488.491 200.978 480.973 202.827 478.258 197.878L477.667 196.8C471.8 186.267 466.333 176.8 465.533 175.867C464.467 174.533 460.467 174 451 174C445.731 174 440.907 174.222 438.627 174.557Z" fill="#841198"/>
</g>
<path d="M438.627 174.557C437.69 174.694 437.124 175.38 437.046 176.325C436.627 181.426 436.333 199.881 436.333 221.467C436.333 261.733 436.6 267.2 438.467 267.867C441.533 269.067 462.067 268.8 463.933 267.6C465.133 266.933 465.667 260.533 465.933 246.667V246.667C466.043 241.175 473.35 239.368 476.007 244.176L476.867 245.733C482.6 256.133 488.2 265.6 489.267 266.667C491.933 269.333 513.933 269.467 516.2 266.8C517.267 265.6 517.667 252.133 517.4 219.867L517.088 184.578C517.039 179.09 512.576 174.667 507.088 174.667H503H498.808C493.361 174.667 488.916 179.027 488.81 184.473L488.6 195.333V195.333C488.491 200.978 480.973 202.827 478.258 197.878L477.667 196.8C471.8 186.267 466.333 176.8 465.533 175.867C464.467 174.533 460.467 174 451 174C445.731 174 440.907 174.222 438.627 174.557Z" fill="#841198"/>
<rect x="13" y="4" width="531" height="10" fill="#3C1F37"/>
<rect x="4" y="4" width="9" height="280" fill="#66345D"/>
<path d="M13.0166 14.0687L4.05804 4.02626L22.0148 4.06187L13.0166 14.0687Z" fill="#3C1F37"/>
<defs>
<filter id="filter0_f_13_53" x="168.567" y="21.1543" width="146.1" height="147.998" filterUnits="userSpaceOnUse" color-interpolation-filters="sRGB">
<feFlood flood-opacity="0" result="BackgroundImageFix"/>
<feBlend mode="normal" in="SourceGraphic" in2="BackgroundImageFix" result="shape"/>
<feGaussianBlur stdDeviation="6.5" result="effect1_foregroundBlur_13_53"/>
</filter>
<filter id="filter1_f_13_53" x="419.933" y="21" width="109.933" height="148" filterUnits="userSpaceOnUse" color-interpolation-filters="sRGB">
<feFlood flood-opacity="0" result="BackgroundImageFix"/>
<feBlend mode="normal" in="SourceGraphic" in2="BackgroundImageFix" result="shape"/>
<feGaussianBlur stdDeviation="6.5" result="effect1_foregroundBlur_13_53"/>
</filter>
<filter id="filter2_f_13_53" x="24.8833" y="23.6667" width="159.07" height="143.236" filterUnits="userSpaceOnUse" color-interpolation-filters="sRGB">
<feFlood flood-opacity="0" result="BackgroundImageFix"/>
<feBlend mode="normal" in="SourceGraphic" in2="BackgroundImageFix" result="shape"/>
<feGaussianBlur stdDeviation="6.5" result="effect1_foregroundBlur_13_53"/>
</filter>
<filter id="filter3_f_13_53" x="298.217" y="23.6667" width="109.783" height="143.269" filterUnits="userSpaceOnUse" color-interpolation-filters="sRGB">
<feFlood flood-opacity="0" result="BackgroundImageFix"/>
<feBlend mode="normal" in="SourceGraphic" in2="BackgroundImageFix" result="shape"/>
<feGaussianBlur stdDeviation="6.5" result="effect1_foregroundBlur_13_53"/>
</filter>
<filter id="filter4_f_13_53" x="387.683" y="23.5" width="52.0698" height="59.137" filterUnits="userSpaceOnUse" color-interpolation-filters="sRGB">
<feFlood flood-opacity="0" result="BackgroundImageFix"/>
<feBlend mode="normal" in="SourceGraphic" in2="BackgroundImageFix" result="shape"/>
<feGaussianBlur stdDeviation="6.5" result="effect1_foregroundBlur_13_53"/>
</filter>
<filter id="filter5_f_13_53" x="24.867" y="161.072" width="102.078" height="120.646" filterUnits="userSpaceOnUse" color-interpolation-filters="sRGB">
<feFlood flood-opacity="0" result="BackgroundImageFix"/>
<feBlend mode="normal" in="SourceGraphic" in2="BackgroundImageFix" result="shape"/>
<feGaussianBlur stdDeviation="6.5" result="effect1_foregroundBlur_13_53"/>
</filter>
<filter id="filter6_f_13_53" x="85.7169" y="161.032" width="120.95" height="120.635" filterUnits="userSpaceOnUse" color-interpolation-filters="sRGB">
<feFlood flood-opacity="0" result="BackgroundImageFix"/>
<feBlend mode="normal" in="SourceGraphic" in2="BackgroundImageFix" result="shape"/>
<feGaussianBlur stdDeviation="6.5" result="effect1_foregroundBlur_13_53"/>
</filter>
<filter id="filter7_f_13_53" x="166" y="161" width="123.333" height="120.768" filterUnits="userSpaceOnUse" color-interpolation-filters="sRGB">
<feFlood flood-opacity="0" result="BackgroundImageFix"/>
<feBlend mode="normal" in="SourceGraphic" in2="BackgroundImageFix" result="shape"/>
<feGaussianBlur stdDeviation="6.5" result="effect1_foregroundBlur_13_53"/>
</filter>
<filter id="filter8_f_13_53" x="267.39" y="161" width="93.7544" height="120.48" filterUnits="userSpaceOnUse" color-interpolation-filters="sRGB">
<feFlood flood-opacity="0" result="BackgroundImageFix"/>
<feBlend mode="normal" in="SourceGraphic" in2="BackgroundImageFix" result="shape"/>
<feGaussianBlur stdDeviation="6.5" result="effect1_foregroundBlur_13_53"/>
</filter>
<filter id="filter9_f_13_53" x="342.057" y="161" width="102.769" height="120.49" filterUnits="userSpaceOnUse" color-interpolation-filters="sRGB">
<feFlood flood-opacity="0" result="BackgroundImageFix"/>
<feBlend mode="normal" in="SourceGraphic" in2="BackgroundImageFix" result="shape"/>
<feGaussianBlur stdDeviation="6.5" result="effect1_foregroundBlur_13_53"/>
</filter>
<filter id="filter10_f_13_53" x="423.333" y="161" width="107.147" height="120.735" filterUnits="userSpaceOnUse" color-interpolation-filters="sRGB">
<feFlood flood-opacity="0" result="BackgroundImageFix"/>
<feBlend mode="normal" in="SourceGraphic" in2="BackgroundImageFix" result="shape"/>
<feGaussianBlur stdDeviation="6.5" result="effect1_foregroundBlur_13_53"/>
</filter>
</defs>
</svg>
